<?xml version="1.0" encoding="UTF-8" standalone="no"?>
<!-- Created with Inkscape (http://www.inkscape.org/) -->

<svg
   width="109.38475mm"
   height="38.621693mm"
   viewBox="0 0 109.38475 38.621693"
   version="1.1"
   id="svg1"
   xml:space="preserve"
   xmlns:inkscape="http://www.inkscape.org/namespaces/inkscape"
   xmlns:sodipodi="http://sodipodi.sourceforge.net/DTD/sodipodi-0.dtd"
   xmlns:xlink="http://www.w3.org/1999/xlink"
   xmlns="http://www.w3.org/2000/svg"
   xmlns:svg="http://www.w3.org/2000/svg"><sodipodi:namedview
     id="namedview1"
     pagecolor="#ffffff"
     bordercolor="#000000"
     borderopacity="0.25"
     inkscape:showpageshadow="2"
     inkscape:pageopacity="0.0"
     inkscape:pagecheckerboard="0"
     inkscape:deskcolor="#d1d1d1"
     inkscape:document-units="mm"><inkscape:page
       x="0"
       y="0"
       width="109.38475"
       height="38.621693"
       id="page2"
       margin="0"
       bleed="0" /></sodipodi:namedview><defs
     id="defs1"><clipPath
       clipPathUnits="userSpaceOnUse"
       id="clipPath7"><use
         x="0"
         y="0"
         xlink:href="#g6"
         id="use7" /></clipPath></defs><g
     inkscape:label="Layer 1"
     inkscape:groupmode="layer"
     id="layer1"
     transform="translate(-38.778163,-68.863938)"><path
       id="rect12"
       style="fill:#ffb380;fill-opacity:1;stroke-width:0.281064"
       d="m 38.837472,97.985636 c -0.19626,1.0645 0.110341,1.905733 0.687099,1.886584 l 41.44189,-1.375884 c 0.576756,-0.01915 1.198746,-0.89119 1.394998,-1.955713 l 3.93729,-21.355366 c 0.185978,-1.008715 -0.07948,-1.816746 -0.598552,-1.882424 -1.61e-4,-2.1e-5 -3.45e-4,3.7e-5 -5.08e-4,1.5e-5 L 38.896306,97.666534 Z"
       inkscape:transform-center-x="21.736244"
       inkscape:transform-center-y="0.48237206" /><path
       id="path16"
       style="fill:#c87137;fill-opacity:1;stroke-width:0.145203"
       d="m 47.428898,96.70254 c -0.104511,0.533521 0.05875,0.955138 0.365889,0.945545 l 22.06836,-0.689587 c 0.30713,-0.0096 0.638348,-0.446663 0.742855,-0.9802 l 2.096659,-10.7032 c 0.09904,-0.505562 -0.04232,-0.910544 -0.318737,-0.943462 -8.6e-5,-1e-5 -1.83e-4,1.9e-5 -2.7e-4,8e-6 L 47.460228,96.542599 Z"
       inkscape:transform-center-x="11.574839"
       inkscape:transform-center-y="0.24176321" /><path
       id="path13"
       style="fill:#ffb380;fill-opacity:1;stroke-width:0.304507"
       d="m 148.15507,103.60314 c -0.0262,1.10805 -0.56636,1.93601 -1.21088,1.85687 l -46.311,-5.686837 c -0.644518,-0.0791 -1.142038,-1.03452 -1.115838,-2.142588 l 0.525098,-22.22911 c 0.0248,-1.049986 0.511,-1.848265 1.11029,-1.861761 1.9e-4,-6e-6 3.9e-4,7.7e-5 5.7e-4,7e-5 l 47.00961,29.731206 z"
       inkscape:transform-center-x="-24.087015"
       inkscape:transform-center-y="2.7361178" /><path
       id="path17"
       style="fill:#c87137;fill-opacity:1;stroke-width:0.145203"
       d="m 137.76977,101.49824 c 0.0507,0.54128 -0.15381,0.9445 -0.45841,0.90432 l -21.88943,-2.888048 c -0.30464,-0.0402 -0.59059,-0.508126 -0.64134,-1.049428 l -1.01828,-10.858987 c -0.0481,-0.512917 0.13294,-0.901779 0.41129,-0.906951 8e-5,-2e-6 1.7e-4,3.7e-5 2.6e-4,3.5e-5 l 23.58069,14.636789 z"
       inkscape:transform-center-x="-11.493056"
       inkscape:transform-center-y="1.3943999" /><g
       id="g7"
       clip-path="url(#clipPath7)"
       transform="matrix(0.80169884,0,0,0.57820258,14.665754,33.76231)"><g
         inkscape:label="Clip"
         id="g6"><path
           id="rect1"
           style="fill:#ffccaa;fill-opacity:1;stroke-width:0.264999"
           inkscape:transform-center-x="-7.2922522"
           inkscape:transform-center-y="-1.1464051"
           d="m 15.257749,107.25206 c -0.182626,-0.22465 -0.435539,-0.4327 -0.742344,-0.59374 l -7.6326602,-4.0065 c -0.818147,-0.42944 -1.696518,-0.35664 -1.9693561,0.16315 l -3.1179481,5.94045 c -2.9435275,-0.9777 -6.0653188,-1.52678 -9.2809852,-1.56585 l -1.65e-4,-7.09275 c 0,-0.587047 -0.7440478,-1.059678 -1.6680527,-1.059678 l -8.6194307,-4e-6 c -0.924005,0 -1.668135,0.472636 -1.668135,1.059682 l -6.2e-5,8.35309 c 0,0.3096 0.207042,0.58748 0.538133,0.78088 -3.798893,1.43123 -7.59151,3.65339 -11.250071,6.7876 -9.541322,8.17385 -21.497526,19.04925 2.85838,43.58728 l 0.01922,-0.0188 c 18.5580094,20.82542 29.9857428,10.48836 38.729736,2.15277 3.254234,-3.10224 5.758465,-6.31689 7.598695,-9.56273 l 8.193272,0.80877 c 0.58421,0.0577 1.127277,-0.63608 1.218046,-1.55562 l 0.84676,-8.57847 c 0.09077,-0.91953 -0.306137,-1.70603 -0.890347,-1.7637 l -5.470674,-0.54008 c 0.409441,-3.4999 0.148614,-6.92105 -0.672058,-10.15763 l 5.316892,-2.15466 c 0.544083,-0.22045 0.702437,-1.08708 0.355443,-1.94345 l -3.236984,-7.98894 c -0.346995,-0.85638 -1.064386,-1.3683 -1.608469,-1.14785 l -6.081412,2.46457 -3.47e-4,-3.8e-4 c -1.404325,-1.83638 -3.015041,-3.52037 -4.794433,-5.01626 l 3.271298,-6.23143 c 0.170524,-0.32487 0.06244,-0.7453 -0.24194,-1.11971 z"
           transform="rotate(-47.818767)" /></g><path
         id="path10"
         style="fill:#000000;fill-opacity:1;stroke-width:0.264999"
         d="m 93.713482,96.728302 c -3.525411,0.552815 1.799458,10.029918 4.322733,9.221138 1.146719,0.83044 8.560255,-7.352516 4.456575,-9.175146 -1.35636,-0.602419 -3.746184,1.899649 -4.362524,2.418974 -0.523296,-0.445448 -2.902989,-2.702342 -4.416784,-2.464966 z"
         sodipodi:nodetypes="scscs" /><path
         id="path11"
         style="fill:#000000;fill-opacity:1;stroke-width:0.264999"
         d="m 113.24253,84.14581 a 7.2087374,7.2087374 0 0 0 -7.20834,7.208345 7.2087374,7.2087374 0 0 0 0.48989,2.612244 6.9466023,5.5703883 0 0 1 6.84971,-4.643644 6.9466023,5.5703883 0 0 1 6.73861,4.216797 7.2087374,7.2087374 0 0 0 0.33899,-2.185397 7.2087374,7.2087374 0 0 0 -7.20886,-7.208345 z" /><path
         id="path12"
         style="fill:#000000;fill-opacity:1;stroke-width:0.264999"
         d="m 80.606608,84.407946 a 7.2087374,7.2087374 0 0 0 -7.20834,7.208345 7.2087374,7.2087374 0 0 0 0.48989,2.612244 6.9466023,5.5703883 0 0 1 6.84971,-4.643644 6.9466023,5.5703883 0 0 1 6.73861,4.216797 7.2087374,7.2087374 0 0 0 0.33899,-2.185397 7.2087374,7.2087374 0 0 0 -7.20886,-7.208345 z" /><path
         id="path14"
         style="fill:#000000;fill-opacity:1;stroke-width:0.389223"
         d="m 98.929171,120.91705 c -3.899205,-0.84383 -5.789943,4.55121 -9.707299,3.78311 -1.41517,-0.10365 -4.711353,-2.0279 -4.958571,-1.52835 2.468962,0.63415 4.884604,4.09318 7.507992,2.5442 2.067427,-1.69037 4.338388,-5.88224 7.490547,-3.88354 2.16153,1.22281 3.48923,3.90014 5.93255,4.47541 1.80769,-0.54241 5.81265,-3.1596 6.00255,-3.30401 -2.94793,1.21297 -6.71443,3.07923 -9.42572,0.30467 -0.99951,-0.7329 -1.9248,-1.55985 -2.842049,-2.39149 z" /></g></g></svg>
